<?xml version="1.0" encoding="utf-8"?>
<svg xmlns="http://www.w3.org/2000/svg" version="1.1" class="injectionDiv" viewBox="-12.932 -7.568 152.617 70.185">
  <style>
    .blocklyText {
        fill: #FFFFFF;
        font-family: "Helvetica Neue", Helvetica, sans-serif;
        font-size: 12pt;
        font-weight: 500;
    }
    .blocklyNonEditableText&gt;text, .blocklyEditableText&gt;text {
        fill: #575E75;
    }
    .blocklyDropdownText {
        fill: #FFFFFF !important;
    }
    </style>
  <g data-id="B-b=8w,BvRu@[sp2QgdC" class="blocklyDraggable blocklySelected" data-shapes="stack" data-category="motion" transform="translate(1,1) scale(1)">
    <path class="blocklyPath blocklyBlockBackground" stroke="#3373CC" fill="#4C97FF" fill-opacity="1" d="m 0,4 A 4,4 0 0,1 4,0 H 12 c 2,0 3,1 4,2 l 4,4 c 1,1 2,2 4,2 h 12 c 2,0 3,-1 4,-2 l 4,-4 c 1,-1 2,-2 4,-2 H 113.0671272277832 a 4,4 0 0,1 4,4 v 40  a 4,4 0 0,1 -4,4 H 48   c -2,0 -3,1 -4,2 l -4,4 c -1,1 -2,2 -4,2 h -12 c -2,0 -3,-1 -4,-2 l -4,-4 c -1,-1 -2,-2 -4,-2 H 4 a 4,4 0 0,1 -4,-4 z"/>
    <g data-id="-yU:dn=#i;dz5KgC~w`3" data-argument-type="text number" data-shapes="argument round" transform="translate(69.0671272277832,8)">
      <path class="blocklyPath blocklyBlockBackground" stroke="#3373CC" fill="#FFFFFF" fill-opacity="1" d="m 0,0 m 16,0 H 24 a 16 16 0 0 1 0 32 H 16 a 16 16 0 0 1 0 -32 z"/>
      <g class="blocklyEditableText" transform="translate(8, 0) " style="cursor: text;">
        <text class="blocklyText" x="12" y="18" dominant-baseline="middle" dy="0" text-anchor="middle" style="white-space: pre;">0</text>
      </g>
    </g>
    <text class="blocklyText" y="2" text-anchor="middle" dominant-baseline="middle" dy="0" x="26.5335636138916" transform="translate(8, 24) " style="white-space: pre;">maak y</text>
    <path class="blocklyPath" style="visibility: hidden" d="" fill="#3373CC"/>
  </g>
</svg>